<mxfile host="65bd71144e">
    <diagram id="Fd3t-GBK5l4sVY-iC-SX" name="Page-1">
        <mxGraphModel dx="929" dy="1045" grid="1" gridSize="10" guides="1" tooltips="1" connect="1" arrows="1" fold="1" page="1" pageScale="1" pageWidth="10000" pageHeight="10000" math="0" shadow="0">
            <root>
                <mxCell id="0"/>
                <mxCell id="1" parent="0"/>
                <mxCell id="2" value="Ubutntu" style="rounded=0;whiteSpace=wrap;html=1;fillColor=#fa6800;fontColor=#000000;strokeColor=#C73500;" vertex="1" parent="1">
                    <mxGeometry x="370" y="860" width="490" height="60" as="geometry"/>
                </mxCell>
                <mxCell id="3" value="wget, lsof, unzip, libczmq, libxerces-c,&amp;nbsp;&lt;br&gt;coinor-cbc, libhdf5, git" style="rounded=0;whiteSpace=wrap;html=1;" vertex="1" parent="1">
                    <mxGeometry x="370" y="780" width="490" height="60" as="geometry"/>
                </mxCell>
                <mxCell id="4" value="Jupyter" style="rounded=0;whiteSpace=wrap;html=1;fillColor=#fa6800;fontColor=#000000;strokeColor=#C73500;" vertex="1" parent="1">
                    <mxGeometry x="10" y="850" width="110" height="60" as="geometry"/>
                </mxCell>
                <mxCell id="5" value="CST" style="rounded=0;whiteSpace=wrap;html=1;" vertex="1" parent="1">
                    <mxGeometry x="10" y="780" width="110" height="60" as="geometry"/>
                </mxCell>
                <mxCell id="6" value="Airflow" style="rounded=0;whiteSpace=wrap;html=1;fillColor=#fa6800;fontColor=#000000;strokeColor=#C73500;" vertex="1" parent="1">
                    <mxGeometry x="140" y="850" width="100" height="60" as="geometry"/>
                </mxCell>
                <mxCell id="7" value="CST" style="rounded=0;whiteSpace=wrap;html=1;" vertex="1" parent="1">
                    <mxGeometry x="140" y="780" width="100" height="60" as="geometry"/>
                </mxCell>
                <mxCell id="8" value="library" style="rounded=0;whiteSpace=wrap;html=1;fillColor=#fa6800;fontColor=#000000;strokeColor=#C73500;" vertex="1" parent="1">
                    <mxGeometry x="370" y="700" width="100" height="60" as="geometry"/>
                </mxCell>
                <mxCell id="9" value="pkgconf, libtool" style="rounded=0;whiteSpace=wrap;html=1;" vertex="1" parent="1">
                    <mxGeometry x="370" y="630" width="100" height="60" as="geometry"/>
                </mxCell>
                <mxCell id="10" value="build" style="rounded=0;whiteSpace=wrap;html=1;fillColor=#fa6800;fontColor=#000000;strokeColor=#C73500;" vertex="1" parent="1">
                    <mxGeometry x="370" y="560" width="100" height="60" as="geometry"/>
                </mxCell>
                <mxCell id="12" value="clone and build open-source tools" style="rounded=0;whiteSpace=wrap;html=1;" vertex="1" parent="1">
                    <mxGeometry x="370" y="490" width="100" height="60" as="geometry"/>
                </mxCell>
                <mxCell id="13" value="helics" style="rounded=0;whiteSpace=wrap;html=1;fillColor=#fa6800;fontColor=#000000;strokeColor=#C73500;" vertex="1" parent="1">
                    <mxGeometry x="540" y="420" width="70" height="60" as="geometry"/>
                </mxCell>
                <mxCell id="14" value="copy from build and install helics" style="rounded=0;whiteSpace=wrap;html=1;" vertex="1" parent="1">
                    <mxGeometry x="540" y="350" width="70" height="60" as="geometry"/>
                </mxCell>
                <mxCell id="15" value="" style="endArrow=classic;html=1;exitX=1;exitY=0.5;exitDx=0;exitDy=0;entryX=0.25;entryY=1;entryDx=0;entryDy=0;" edge="1" parent="1" source="10" target="13">
                    <mxGeometry width="50" height="50" relative="1" as="geometry">
                        <mxPoint x="650" y="560" as="sourcePoint"/>
                        <mxPoint x="700" y="510" as="targetPoint"/>
                    </mxGeometry>
                </mxCell>
                <mxCell id="16" value="python" style="rounded=0;whiteSpace=wrap;html=1;fillColor=#fa6800;fontColor=#000000;strokeColor=#C73500;" vertex="1" parent="1">
                    <mxGeometry x="540" y="270" width="70" height="60" as="geometry"/>
                </mxCell>
                <mxCell id="17" value="CST, venv, PyHELICS" style="rounded=0;whiteSpace=wrap;html=1;" vertex="1" parent="1">
                    <mxGeometry x="540" y="200" width="70" height="60" as="geometry"/>
                </mxCell>
            </root>
        </mxGraphModel>
    </diagram>
</mxfile>